<svg xmlns="http://www.w3.org/2000/svg" width="500" height="500" viewBox="0 0 500 500"><path fill="#071b36" d="M44.14 332.2l.032.007h.008l-.04-.006zm62.992 31.08c.083.003.644.06 1.15.512.5.455 1.15 1.37 1.216 3.672l2.775-.064c-.053-3.006-1.115-4.905-2.387-5.88-1.263-.977-2.486-1.012-2.752-1.015h-.046l.046 1.686v1.057l-.002.034zm153.65-249.687l-11.12 1.95-.384-.113-.056.19-9.016 1.58.48 2.733 1.13-.197 2.764 5.28h9.393l1.87-4.776 3.628 1.06.783-2.664-4.563-1.333 5.567-.976-.476-2.734zm-8.7 8.648h-5.822l-1.574-3.007 4.82-.845 3.663 1.07-1.09 2.784zm141.363 180.233l7.617-2.674 8.023 4.887-6.883-27.18-8.757 24.966zm8.498-5.384l-.722 1.183-.46-1.31-2.784.98 3.8-10.826 2.953 11.67-2.786-1.698zm27.08-47.426l-8.036 22.91 7.617-2.676 8.024 4.89-6.615-26.116-.99.993zm.462 17.525l-.72 1.184-.462-1.31-2.785.98 3.796-10.826 2.957 11.668-2.784-1.697zm32.68 7.516l4.686 8.148 7.037-27.145-19.682 17.68 7.962 1.316zm3.705.875l-1.626-2.825-1.203.69.23-1.368-2.913-.482 8.533-7.67-3.02 11.656zm12.184 31.603l.645 9.373 18.205-21.323v-.003l-25.432 7.28 6.58 4.672zm2.948 2.403l-.226-3.25-1.385.096.805-1.13-2.406-1.71 11.027-3.158-7.814 9.153zm-24.1 47.782l.646 9.373 18.208-21.325-25.432 7.284 6.58 4.67zm2.947 2.404l-.224-3.248-1.385.096.803-1.133-2.406-1.708 11.026-3.16-7.815 9.153zm9.065-320.78c.038-.096.087-.187.124-.283l5.24-13.108-105.313 74.834-6.812 9.474c-9.726 1.298-16.21 4.88-20.14 10.146-4.016 5.375-5.316 12.253-5.32 19.766.004 8.268 1.58 17.396 3.136 26.477 1.56 9.075 3.1 18.105 3.096 26.06.003 6.947-1.173 13.015-4.352 17.656-3.008 4.386-7.86 7.654-15.68 9.32l-4.89-24.796-1.775 1.367-.107.078c-.686.5-4.547 3.185-11.153 5.444l-8.635-26.04-.1.033-17.522-69.102 7.19-3.984-45.79 2.13-17.486 8.018-22.1 9.122 7.167 19.196 1.53-1.813 6.466-7.667 7.005 1.124 16.022 16.634-7.85 13.41-20.37 14.127.908.157-19.302 22.126 2.092 1.824 20.41-23.396 35.604 6.152 43.95-5.822 8.16 24.604c-4.777 1.382-10.7 2.442-17.662 2.44-9.893.006-18.225-4.42-24.105-8.905-2.938-2.24-5.254-4.486-6.825-6.165-.79-.838-1.388-1.536-1.792-2.02l-.45-.555-.138-.182-1.05.79-1.05-.79-.14.183c-.742.943-4.4 5.398-10.198 9.578-5.802 4.187-13.702 8.07-22.976 8.068-10.11 0-18.03-2.225-23.417-4.438-2.693-1.107-4.75-2.21-6.125-3.03-.687-.41-1.205-.75-1.545-.983l-.376-.266-.106-.077-1.775-1.367-4.893 24.793c-7.82-1.666-12.672-4.933-15.68-9.318-3.177-4.642-4.352-10.71-4.35-17.657-.003-7.952 1.536-16.982 3.094-26.06 1.556-9.08 3.133-18.21 3.136-26.476-.004-7.513-1.306-14.39-5.32-19.766-3.93-5.267-10.416-8.85-20.14-10.146l-6.812-9.474L26.316 25.6l5.24 13.107c.04.095.086.186.126.282L.598 20.274l1.12 3.51c.017.054 1.816 5.695 5.483 12.567 3.677 6.867 9.194 14.992 16.844 19.958C31.43 61.09 58.777 77.4 84.33 92.545l.754.445-62.59-29.438 1.597 3.46c.036.068 2.395 5.17 7.25 11.293 4.86 6.118 12.223 13.282 22.31 17.36C60.6 98.475 72.68 104 85.3 109.932L31.022 93.67l2.254 3.256c.027.037 4.52 6.52 11.216 13.567 4.375 4.582 9.665 9.4 15.344 12.842l-21.128-3.986 2.317 2.915c.037.043 4.434 5.578 11.268 11.436 6.823 5.83 16.056 12.038 26.013 13.297V147l9.19 1.655-38.67-3.286 2.646 2.677c.034.034 4.924 4.977 12.05 10.156 4.268 3.092 9.33 6.265 14.672 8.527H56.907l2.46 2.385c.04.04 4.524 4.385 11.214 8.755 3.476 2.263 7.547 4.532 11.92 6.21l-20.8.27 2.96 2.412c.04.03 4.468 3.64 10.888 7.267 4.7 2.643 10.457 5.307 16.41 6.562l-23.526 5.415 4.6 1.575c.025.008 4.208 1.438 9.854 2.873 3.837.972 8.33 1.916 12.693 2.447L78.7 220.11l2.923 1.29c.092.03 8.746 3.88 18.172 3.893 1.19 0 2.393-.09 3.594-.233l-16.92 14.105 10.44.45c.52.024 1.04.035 1.554.035 2.933 0 5.766-.386 8.462-1.105l-12.19 12.245 10.43-.494c3.778-.178 7.37-.94 10.67-2.252l-12.487 14.458 10.43-1.414c5.33-.72 10.17-2.607 14.24-5.482l-8.843 21.004 9.487-4.495c3.756-1.778 7.013-4.14 9.7-6.943l-4.428 21.955 8.483-5.812c1.747-1.197 3.332-2.53 4.776-3.964l-4.247 18.96 8.53-6.17c2.97-2.145 5.48-4.66 7.49-7.45v15.587l7.17-7.365c5.298-5.44 8.45-12.096 8.985-19.127l.003-.038.592-25.37c2.953.863 5.253 1.317 6.57 1.53v59.067l-47.937 34.148 3.135.635c.06.01 4.177.843 9.812.843 2.722-.003 5.81-.217 8.967-.803l-16.74 11.265-17.33 10.034c-.034-.157-.065-.306-.106-.477-.45-1.844-1.26-4.404-2.862-6.62-1.575-2.21-4.14-4.106-7.664-4.087l-.302.003c-2.432.065-4.463.916-6.027 2.125-2.352 1.82-3.714 4.35-4.534 6.4-.814 2.058-1.077 3.667-1.09 3.735l2.74.444.015-.088c.092-.505.645-3.063 2.053-5.388.7-1.168 1.605-2.27 2.73-3.07 1.13-.803 2.465-1.33 4.195-1.385l.22-.004c1.75.008 3.02.58 4.1 1.493 1.615 1.362 2.695 3.616 3.314 5.584.31.98.515 1.883.644 2.55.066.336.11.61.145.813l.04.254.02.106.048.203 1.325-.416.696 1.2 18.51-10.717c1.387.482 4.882 1.5 9.757 1.504 1.9 0 4.014-.17 6.274-.576l-14.617 8.912.125.02-19.305 12.356c-1.406-1.32-3.03-2.364-4.69-2.982-.246-.09-.525-.133-.788-.198-.29-1.43-.71-3.043-1.333-4.912l-2.634.878c.472 1.414.793 2.623 1.05 3.73-2.08.052-4.365.578-6.446 1.65-.32-.414-.687-.86-1.12-1.292-.12-.125-.272-.238-.41-.36.332-.453.663-.905 1.023-1.36l-2.173-1.724c-.125.157-.238.312-.36.47-.186-.73-.43-1.546-.765-2.386-.202-.504-.46-1.008-.73-1.507.364-.05.72-.117 1.108-.117v-1.178l-.026 1.18.06-2.775h-.034c-1.08 0-2.056.18-2.982.43-.99-.894-2.305-1.555-3.862-1.544l-.664.035c-1.267.14-2.475.45-3.625.866-3.17-2.786-6.377-5.756-9.573-8.896l2.41-4.355 24.684-16.795.01-.008c5.454-3.844 9.876-8.977 12.875-14.94l5.79-11.527-11.667 2.563c-5.258 1.154-10.21 3.352-14.592 6.425.497-2.378.806-4.798.806-7.245 0-.485-.01-.973-.03-1.458-.018-.447-.027-.892-.027-1.34 0-3.01.416-6.006 1.236-8.91l2.646-9.363-2.963 1.72c-10.455 6.068-18.213 15.886-21.696 27.468l-.848 2.815c-.673 2.25-1.105 5.704-1.405 9.715-.294 4-.432 8.51-.434 12.687.004 3.677.108 7.066.317 9.665-3.654-3.707-7.265-7.598-10.747-11.61l3.343-4.3.066-.145c4.067-8.848 6.436-18.386 6.977-28.116.08-1.437.12-2.876.12-4.314 0-3.515-.238-7.026-.712-10.512l-2.238-16.386-13.358 28.502c-1.907 4.07-2.865 8.466-2.865 12.864 0 3.88.744 7.766 2.24 11.438l1.913 4.696-.823-.116c-6.333-7.845-12.025-15.988-16.503-23.98l5.284-4.143c6.185-4.848 9.757-12.256 9.757-20.04 0-.64-.024-1.286-.073-1.93v.002c-.042-.566-.064-1.136-.064-1.702 0-1.85.227-3.698.675-5.495l5.265-21.15-16.827 14.914c-3.45 3.057-5.38 7.422-5.38 11.958 0 .74.05 1.485.156 2.23l.007.046 4.095 19.514-4.243 3.327c-.54-1.02-1.08-2.036-1.576-3.047-1.076-2.186-1.986-4.112-2.78-5.847l.024-.03-.058-.045c-1.286-2.82-2.23-5.083-2.915-6.877l.342-.968.222.108-.137-.35 3.6-10.186c3.817-10.812 5.77-22.188 5.77-33.646 0-.604-.007-1.21-.018-1.813l-.282-15.544-11.72 13.994c-1.043-2.92-2.238-5.787-3.677-8.546L28.1 225.213l-4.15 34.65c-2.095-2.018-4.45-3.768-7-5.242v-.046l-.723-.394c-2.383-1.303-4.6-2.895-6.6-4.737l-6.214-5.73.428 3.71.906 7.883c.61 5.322 2.344 10.46 5.09 15.062H9.83c3.794 6.365 9.376 11.48 16.046 14.703l9.72 4.695c.193.694.427 1.466.763 2.428.364 1.044.835 2.28 1.42 3.7l-4.643-3.76c-3.145-2.55-6.87-4.28-10.847-5.048-3.482-.672-6.75-2.185-9.524-4.398l-8.524-6.823 1.83 7.658c1.48 6.22 4.383 11.986 8.437 16.894-.783-.054-1.56-.138-2.33-.284L0 297.816l1.886 2.77 3.624 5.322c3.803 5.588 9.125 9.964 15.337 12.62 4.425 1.89 9.153 2.842 13.892 2.842 3.53 0 7.066-.528 10.49-1.59l4.115-1.282c2.634 4.2 5.54 8.397 8.655 12.538l-1.243-.688-.138-.04c-8.77-2.69-17.806-4.42-26.948-5.15-6.38-.514-12.712-1.52-18.938-3.015l-10.288-2.47.48 2.166c.025.093.898 4.096 3.595 8.2 1.35 2.05 3.17 4.133 5.598 5.72 1.207.79 2.57 1.445 4.084 1.91l-11.56 4.283 21.082 5.235c2.81.698 5.677 1.045 8.542 1.045 3.986 0 7.966-.675 11.762-2.01l3.835-1.35-.015.005c3.51-1.238 7.178-1.856 10.846-1.856 3.568 0 7.134.596 10.555 1.767 1.756 1.992 3.536 3.954 5.34 5.872l-8.588.08h.04c-6.615.06-12.94 2.714-17.615 7.394l-2.72 2.724.014-.016c-4.524 4.525-9.66 8.393-15.26 11.487l-1.877 1.04-3.518 1.94 3.967.64c2.23.36 4.47.54 6.7.54 9.925 0 19.617-3.516 27.28-10.047l10.82-9.222 3.85-3.33c.42.43.837.86 1.258 1.288l-21.616 19.06-.03.025c-5.17 5.095-8.35 11.864-8.972 19.094l-1.282 14.926 12.828-9.645c7.68-5.77 13.1-14.04 15.328-23.383.805-3.363 2.057-6.604 3.726-9.634l3.728-6.765c2.627 2.552 5.257 4.99 7.867 7.313-.57.357-1.11.753-1.607 1.192-2.1 1.85-3.476 4.478-3.47 7.505l.022.637c.096 1.66.71 3.052 1.555 4.095 1.272 1.57 2.966 2.403 4.314 2.886.215.076.4.128.596.185-.423 1.195-.626 2.363-.624 3.477 0 2.092.668 3.942 1.6 5.417.94 1.477 2.13 2.593 3.323 3.287 1.305.757 2.603 1.096 3.8 1.093 2.29-.008 4.03-1.17 5.16-2.225.167-.158.298-.31.443-.462.492.518 1.01.992 1.574 1.385 1.927 1.348 4.188 1.955 6.44 1.955 2.85-.012 5.716-.97 8.073-2.684 9.777 8.17 16.827 18.174 21.416 26.156 2.313 4.024 4.004 7.53 5.11 10.023.558 1.247.967 2.24 1.236 2.92.134.34.234.6.3.773l.094.253 2.61-.933c-.052-.11-8.593-24.065-28.694-41.062.714-.793 1.356-1.663 1.86-2.64.6-1.164.875-2.392.873-3.587-.008-2.113-.844-4.054-2.04-5.73l21.673-13.872c1.418.183 5.842.69 11.08.69 5.754-.015 12.403-.575 17.152-3.11 4.646-2.506 13.126-7.92 20.5-12.737 7.363-4.815 13.583-9.014 13.587-9.016l-.15-.223h.762v-96.502H194.3v62.37l.03 23.678c-.12.1-.21.172-.377.305-2.03 1.612-7.3 5.73-13.42 9.955-6.11 4.228-13.106 8.568-18.413 10.602-4.485 1.723-8.574 2.263-11.955 2.263-2.78 0-5.06-.366-6.684-.743l25.61-17.23v-.007c.02-.013.04-.024.06-.04 5.766-4.354 10.513-7.815 13.817-10.187 1.652-1.184 2.943-2.098 3.82-2.712.88-.615 1.337-.933 1.338-.933l-1.572-2.287c-.013.01-7.483 5.148-19.022 13.87l-.41.275c-5.843 4.248-13.707 5.34-19.815 5.33-2.303 0-4.32-.147-5.9-.318l43.662-31.102v-62.95l-1.244-.128s-.128-.014-.417-.055c-2.163-.302-12.377-2.053-23.47-9.025-11.1-6.98-23.095-19.112-29.05-40.42-1.51-5.4-2.134-11.99-2.132-19.065-.003-14.356 2.554-30.688 5.116-43.398 1.28-6.36 2.56-11.815 3.52-15.68l.047-.182 16.03 10.14c-3.892 4.984-18.03 24.737-18.062 49.828 0 4.96.56 10.124 1.87 15.408 4.465 18.062 14.34 27.894 23.083 33.08 8.744 5.194 16.322 5.836 16.455 5.85l1.236.104 1.88-9.538h140.74l1.88 9.538 1.24-.104c.13-.014 7.708-.655 16.452-5.85 8.742-5.187 18.617-15.02 23.083-33.08 1.31-5.284 1.87-10.447 1.87-15.408-.033-25.09-14.17-44.844-18.062-49.827l16.026-10.14c2.863 11.48 8.695 37.573 8.687 59.255 0 7.073-.623 13.665-2.132 19.065-6.354 22.728-19.58 35.022-31.255 41.747-5.837 3.356-11.287 5.3-15.265 6.4-1.99.55-3.61.89-4.726 1.093-.56.1-.99.166-1.277.207-.288.04-.418.053-.418.055l-1.243.128v62.948l43.664 31.105c-1.577.168-3.61.314-5.904.314-6.105.01-13.964-1.08-19.803-5.322l-.42-.28c-11.543-8.722-19.01-13.86-19.024-13.87l-1.57 2.287s.46.317 1.335.933c2.634 1.845 8.988 6.365 17.635 12.898.02.016.044.027.065.043l-.004.003 25.607 17.232c-1.62.374-3.907.742-6.685.74-3.38 0-7.47-.54-11.953-2.263-6.07-2.324-14.33-7.66-20.977-12.4-3.33-2.37-6.273-4.59-8.38-6.22-1.053-.813-1.895-1.478-2.478-1.938l-.38-.304.033-23.68v-62.37H291.51v96.503h.762l-.148.224c.002.002 6.224 4.2 13.587 9.016 7.375 4.817 15.854 10.23 20.5 12.738 4.75 2.534 11.398 3.095 17.15 3.11 5.24 0 9.66-.51 11.08-.69l21.678 13.87c-1.198 1.676-2.033 3.62-2.04 5.732-.004 1.195.272 2.423.872 3.59v-.002c.08.16.188.298.277.453l-4.652 1.724-4.19-4.116-29.208 15.167 7.978 6.855-9.045 6.908 9.474 6.17-4.705 5.173 8.735 2.66 3.487 5.927 15.424-18.833-8.32 13.806 6.717.674-5.34 8.59 9.264-.57 4.63 5.033 2.832-7.057 2.945 2.563.855 2.434 6.543-2.303 6.32 2.715 1.82-34.35-4.71-3.343 1.108-10.92c.066-.044.14-.074.208-.12.563-.393 1.084-.867 1.574-1.385.145.154.277.304.445.46 1.13 1.055 2.87 2.218 5.16 2.226 1.194.002 2.492-.337 3.8-1.096h-.004c1.196-.694 2.386-1.81 3.326-3.287.93-1.475 1.6-3.328 1.6-5.42 0-1.11-.2-2.276-.62-3.466.602-.18 1.3-.44 2.024-.808.99-.507 2.033-1.225 2.88-2.27.305-.38.567-.82.8-1.288l16.44-6.09-.732 7.81 21.416-18.095-26.274 3.066 4.655 4.606-14.737 5.46.005-.203c.003-1.354-.304-2.607-.794-3.768l27.063-18.01.44 7.62 18.444-21.114-25.51 6.984 5.444 3.962L412.95 368.7c-.384-.48-.8-.94-1.262-1.35-.23-.202-.498-.365-.745-.552l48.366-41.962 1.257 7.472 16.045-22.987-24.604 9.713 5.875 3.368-49.445 42.895c-.295-.136-.6-.255-.907-.37l63.76-72.708 2.823 7.24 11.016-25.787-22.103 14.532 6.295 2.05-56.308 64.208 28.794-50.776 4.764 7.47 5.79-27.436-19.084 18.788 5.88.228-34.805 61.377c-.188-.026-.37-.077-.562-.1l44.418-93.577 4.69 6.194 3.553-27.816-17.29 20.02 6.617.25-44.89 94.58c-.13-.59-.402-1.664-.885-2.94l20.07-64.01 5.518 5.475-.388-28.035-14.31 22.245 6.584-.678-10.89 34.724-6.288-26.92-9.213 24.8 6.254-2.065-2.76 27.255c-1.446-.92-3.19-1.553-5.25-1.607l-.3-.002c-2.41-.01-4.415.876-5.9 2.157-2.246 1.933-3.443 4.632-4.16 6.856-.26.818-.433 1.533-.573 2.17l-17.34-10.04-16.73-11.26c3.157.587 6.243.8 8.964.804 5.638 0 9.754-.832 9.813-.843l3.138-.635-47.936-34.15v-59.065c1.314-.214 3.617-.668 6.57-1.533l.592 25.372.003.038c.535 7.03 3.687 13.687 8.98 19.128l7.174 7.362V282.68c2.01 2.79 4.523 5.307 7.49 7.45l8.53 6.17-4.243-18.957c1.445 1.434 3.03 2.767 4.778 3.964l8.48 5.815-4.427-21.958c2.687 2.805 5.946 5.165 9.7 6.943l9.486 4.495-8.842-21.007c4.067 2.878 8.91 4.765 14.24 5.485l10.43 1.414-12.48-14.458c3.294 1.31 6.888 2.074 10.665 2.252l10.43.494-12.185-12.244c2.696.72 5.528 1.105 8.458 1.104.518 0 1.035-.01 1.555-.034l10.444-.45-16.922-14.105c1.203.144 2.406.233 3.596.233 9.428-.015 18.08-3.864 18.172-3.895l2.924-1.287-16.882-7.207c4.365-.53 8.858-1.476 12.695-2.447 5.647-1.436 9.828-2.866 9.853-2.874L432.17 206l-23.53-5.414c5.954-1.256 11.713-3.92 16.41-6.564 6.42-3.626 10.85-7.234 10.887-7.266l2.962-2.413-20.8-.27c4.37-1.677 8.44-3.946 11.915-6.21 6.688-4.37 11.173-8.715 11.213-8.754l2.46-2.385h-21.285c5.342-2.263 10.403-5.436 14.67-8.527 7.128-5.18 12.017-10.122 12.052-10.156l2.647-2.68-38.668 3.287 9.19-1.655v-.004c9.957-1.26 19.19-7.465 26.01-13.296 6.834-5.857 11.232-11.393 11.268-11.436l2.317-2.917-21.127 3.987c5.68-3.44 10.968-8.26 15.344-12.842 6.7-7.046 11.188-13.53 11.216-13.567l2.255-3.256-54.264 16.26c12.615-5.93 24.685-11.454 31.638-14.263 10.09-4.08 17.45-11.244 22.31-17.36 4.856-6.125 7.217-11.227 7.25-11.294l1.598-3.46-62.602 29.443c.254-.153.507-.3.76-.45 25.555-15.148 52.902-31.458 60.29-36.235 7.648-4.966 13.166-13.09 16.84-19.958 3.67-6.872 5.467-12.514 5.485-12.566l1.12-3.503L468.92 38.99zM214.58 128.33l-5.947 7.053-4.568-12.238 18.817-7.766 6.49 6.424 6.99 3.233 2.126 7.126-23.908-3.834zm35.684 52.337l-32.62-5.635 15.31-10.614 9.22-15.753-14.92-15.492 15.155 2.43-3.75-12.557-7.683-3.555-5.374-5.32 15.173-6.956 33.402-1.556-1.456.808-4.693 2.602h8.515l16.708 65.907-42.99 5.693zM49.732 285.354c-.085-.61-.127-1.22-.127-1.824 0-3.75 1.596-7.356 4.445-9.883l10.133-8.98-3.104 12.47c-.505 2.018-.758 4.09-.758 6.166 0 .637.024 1.273.072 1.908v.004c.043.575.065 1.146.065 1.72 0 6.172-2.53 12.065-6.97 16.336l-3.76-17.916zm-11.14-38.16l7.806-9.32.146 8.12c.01.59.017 1.178.017 1.766 0 11.14-1.896 22.208-5.61 32.72l-1.74 4.926 1.22-7.558c.577-3.57.866-7.173.866-10.776 0-3.353-.25-6.704-.75-10.03-.52-3.468-1.336-6.875-2.383-10.208l.43.36zm-11.51 35.38h.002c-6.183-2.986-11.355-7.726-14.87-13.625l-.01-.02.008.02c-2.543-4.268-4.15-9.026-4.716-13.958l-.48-4.176.726.668c1.957 1.804 4.127 3.348 6.43 4.676v.066l.72.393c6.845 3.74 12.16 9.765 15.02 17.02l5.01 12.718-7.84-3.786zm10.606-5.17l-.962 5.96-4.23-10.74c-1.463-3.708-3.533-7.1-6.072-10.095l3.36-28.074 1.396 2.675c3.318 6.363 5.552 13.228 6.62 20.323.48 3.19.72 6.403.72 9.617 0 3.456-.28 6.91-.832 10.333zm.753 10.172l-.025.076-.034-.087.06.01zm-29.61-4.484l2.205 1.764c3.123 2.496 6.807 4.197 10.732 4.956 3.528.68 6.834 2.217 9.625 4.48h.002l8.807 7.132c.75 1.628 1.596 3.408 2.577 5.403.74 1.504 1.54 3.016 2.37 4.533l-8.888-6.75c-3.99-3.027-8.834-4.637-13.776-4.637-1.164 0-2.334.09-3.5.27-.29.044-.583.036-.874.068-4.503-4.86-7.704-10.774-9.28-17.217zm35.58 34.038c-3.155.978-6.415 1.466-9.67 1.466-4.366 0-8.722-.878-12.802-2.62-5.724-2.444-10.63-6.48-14.134-11.628l-1.74-2.553 5.602 1.062c1.403.266 2.826.398 4.25.398 1.168 0 2.337-.09 3.496-.268 1.024-.16 2.05-.24 3.074-.24 4.34 0 8.597 1.416 12.098 4.074l12.485 9.483-2.658.828zm-32.774 16.305c-3.03-1.97-5.065-5.02-6.31-7.602-.428-.89-.736-1.67-.99-2.373l5.754 1.382c6.366 1.528 12.838 2.555 19.364 3.08 8.897.71 17.692 2.39 26.228 5l2.195 1.214-13.704-1.93c-2.043-.286-4.097-.43-6.147-.43-5.22 0-10.418.927-15.343 2.753l-2.93 1.085-.51.01c-3.12-.002-5.583-.877-7.608-2.19zM58.7 340.25c-3.98 0-7.96.67-11.768 2.012l-3.82 1.345c-3.5 1.232-7.166 1.854-10.84 1.854-2.642 0-5.286-.32-7.874-.964l-12.35-3.067 11.6-4.3c4.616-1.712 9.487-2.58 14.38-2.58 1.923 0 3.85.137 5.767.404l19.437 2.737c.918 1.128 1.847 2.245 2.787 3.355-2.416-.51-4.866-.797-7.32-.797zm7.504-3.305l.005-.04.04.094c-.016-.017-.03-.036-.046-.055zm-.028-7.476c-1.357-3.337-2.034-6.864-2.034-10.393 0-3.997.87-7.99 2.603-11.688l9.372-19.99.965 7.07c.458 3.36.688 6.746.688 10.136 0 1.388-.038 2.774-.115 4.162-.52 9.33-2.787 18.48-6.673 26.978l-1.474 1.894-3.33-8.172zm5.85 25.647l.007-.008-10.816 9.22c-7.158 6.1-16.21 9.385-25.48 9.385-.683 0-1.368-.046-2.052-.08 5.09-3.022 9.81-6.638 14.003-10.83l2.706-2.707c4.164-4.166 9.79-6.526 15.682-6.583l7.887-.073-1.938 1.674zm4.47 9.165c-1.79 3.246-3.133 6.72-3.995 10.327-2.08 8.713-7.133 16.426-14.294 21.81l-7.867 5.91.75-8.736c.564-6.57 3.453-12.72 8.15-17.346l20.734-18.28-3.48 6.313zm41.87-50.657l5.98-1.312-3.176 6.32c-2.793 5.554-6.912 10.334-11.99 13.913L89.056 346.24 99.81 326.8l.005-.007c.85-1.596 1.528-3.263 2.122-4.96 4.724-4.035 10.354-6.875 16.43-8.208zM83.24 343.428c0-4.116.138-8.57.427-12.483.282-3.902.74-7.3 1.292-9.116l.85-2.82v-.003c2.93-9.747 9.096-18.147 17.4-23.905l-.716 2.53c-.89 3.15-1.34 6.4-1.34 9.666 0 .484.01.967.03 1.452.017.447.026.896.026 1.344 0 5.36-1.316 10.652-3.844 15.395L83.41 350.72c-.11-2.132-.17-4.64-.17-7.292zm7.64 35.82c-.688-.384-1.328-.885-1.794-1.51-.466-.633-.788-1.375-.854-2.402l-.015-.47c.008-2.188.938-4 2.536-5.432.57-.507 1.25-.933 1.974-1.312.017.013.034.03.05.043l.108-.125c1.27-.645 2.717-1.105 4.28-1.273l.366-.02c.25.003.45.093.67.147-.75.455-1.44.94-2.01 1.436-1.824 1.597-2.763 3.154-2.81 3.233l2.374 1.43.022-.034c.15-.24 1.042-1.568 2.527-2.78.64-.528 1.4-1.01 2.237-1.41.62.98 1.104 2.21 1.41 3.31.11.388.2.754.274 1.087-.905.093-1.845.358-2.836.913-1.19.674-2.462 1.682-3.883 3.126-.962.973-1.722 1.953-2.336 2.932-.634-.16-1.475-.428-2.29-.89zm12.328 12.518c-.843.767-1.94 1.41-3.184 1.403-.687-.004-1.467-.18-2.41-.723-.752-.43-1.678-1.273-2.367-2.37-.694-1.1-1.17-2.437-1.17-3.933.01-1.986.812-4.344 3.41-6.994 1.29-1.313 2.382-2.156 3.262-2.65.413-.23.766-.373 1.086-.473-.993 1.542-1.604 2.626-1.616 2.647l2.42 1.354s.117-.206.343-.588c.343-.577.93-1.54 1.685-2.675.023.02.044.03.067.052.25.244.488.548.725.846-1.88 1.628-3.25 4-3.234 7.005 0 1.182.202 2.444.626 3.782.292.925.683 1.745 1.114 2.515-.21.253-.454.527-.758.8zm19.973-3.623c-1.755 3.474-5.77 5.693-9.535 5.68-1.764-.003-3.443-.47-4.85-1.452-1.408-.987-2.58-2.494-3.3-4.75-.347-1.106-.495-2.085-.495-2.95.018-2.587 1.255-4.297 3.143-5.57 1.88-1.25 4.41-1.867 6.45-1.86.06 0 .105.01.163.01.072.634.114 1.208.114 1.698-.005 1.976-.484 2.808-.782 3.165l-.346.293-.05.02.203.608-.12-.626.524 2.726c.206-.038 1.096-.27 1.905-1.23.812-.956 1.443-2.533 1.438-4.956 0-.333-.035-.718-.06-1.086 1.43.648 2.922 1.727 4.058 3.052 1.305 1.512 2.113 3.276 2.105 4.907 0 .78-.168 1.543-.565 2.324zm51.857-39.588c3.335-2.075 6.66-4.327 9.672-6.468 6.736-4.794 11.875-8.97 11.89-8.983l.514-.417-.034-25.006v-59.587h9.233v92.062c-.657.442-1.81 1.214-3.41 2.282-7.398 4.935-23.13 15.31-29.83 18.914-3.906 2.134-10.293 2.798-15.835 2.78-2.722 0-5.215-.145-7.177-.31l24.993-15.24-.016-.024zM54.69 93.095c-9.47-3.82-16.514-10.635-21.178-16.515-2.145-2.702-3.76-5.175-4.902-7.083l80.774 37.99.044-.093 1.65.974c-.325 1.588-1.002 5.056-1.792 9.9-18.694-8.978-43.228-20.58-54.597-25.173zm-8.187 15.486c-3.27-3.436-6.014-6.755-7.936-9.21-.203-.26-.358-.465-.543-.703L101.88 117.8c2.385 1.138 4.712 2.253 6.954 3.33-.528 3.434-1.08 7.394-1.595 11.74-13.313-2.768-28.77-6.056-37.378-8.142-8.127-1.938-16.835-9.257-23.36-16.147zm79.765 75.68c-3.018-.067-9.56-.194-17.59-.276-.392-4.24-.62-8.535-.713-12.818 8.275.503 15.238.79 18.105.896-.056 1.583-.09 3.153-.09 4.7 0 2.573.113 5.06.288 7.498zm-8.23 2.62c3.81.06 6.767.123 8.443.16.244 2.303.617 4.482 1.064 6.587l-.627.137c-2.834.612-8.642 1.812-16.44 3.154-.63-3.312-1.13-6.708-1.51-10.156 3.328.034 6.413.076 9.07.12zm8.152-17.59c-.56-.02-1.23-.046-2.09-.08-3.542-.147-9.45-.416-16.172-.826-.005-.668-.02-1.338-.018-2.004 0-4.474.143-8.882.37-13.174l8.485.72 10.618 1.913c-.54 4.47-.958 8.994-1.193 13.45zm-47.432-25.026l-.04-.004c-9.042-1.087-18-6.977-24.62-12.666-3.313-2.838-6.05-5.613-7.95-7.673-.14-.15-.244-.27-.376-.414l36.15 6.82v-.002c7.778 1.71 16.808 3.613 25 5.316-.462 4.22-.878 8.746-1.19 13.48l-26.974-4.857zM65.153 155.96c-3.47-2.522-6.406-4.996-8.47-6.836-.137-.122-.237-.217-.367-.333l49.188 4.18c-.23 4.36-.37 8.856-.37 13.41.002.608.015 1.22.02 1.83-5.106-.33-10.54-.74-15.69-1.234-8.286-.78-17.383-5.966-24.31-11.016zm6.946 19.587c-3.23-2.11-5.943-4.226-7.84-5.81-.104-.085-.177-.15-.274-.23H87.5v-.04c.566.09 1.133.214 1.7.27 5.26.505 10.8.92 15.99 1.254.092 4.323.314 8.667.702 12.97-3.406-.028-7.007-.047-10.688-.047-8.104.017-16.65-4.135-23.105-8.365zm4.81 16.065c-2.93-1.655-5.424-3.305-7.254-4.592l25.566-.333v-.002c3.775 0 7.468.02 10.952.05.39 3.603.9 7.163 1.558 10.642-1.887.314-3.838.632-5.913.95-1.066.163-2.155.24-3.26.24-7.337.015-15.444-3.44-21.65-6.955zm6.655 16.155c-1.77-.45-3.37-.894-4.763-1.3l23.487-5.405c2.087-.32 4.084-.643 5.984-.958.653 3.05 1.43 6.02 2.337 8.893-1.46.422-2.905.816-4.284 1.126-1.35.303-2.962.445-4.724.444-5.535.004-12.504-1.39-18.037-2.8zM99.79 222.52c-4.333 0-8.626-.913-11.814-1.836-.756-.218-1.44-.435-2.06-.64l15.704-6.704c1.903 0 3.696-.148 5.316-.51 1.48-.335 3.018-.742 4.565-1.192.83 2.336 1.763 4.585 2.793 6.747-2.012.95-4.025 1.855-5.95 2.636-2.654 1.08-5.608 1.5-8.55 1.5zm-1.33 14.355c-.474 0-.953-.012-1.435-.03l-3.273-.144 15.833-13.193c1.943-.795 3.957-1.696 5.963-2.645 1.316 2.465 2.788 4.785 4.426 6.938l-4.504 3.575v-.002c-4.703 3.595-10.562 5.5-17.01 5.503zm6.574 10.647l-3.288.156 11.604-11.66c1.33-.717 2.606-1.522 3.808-2.44l.01-.01 4.526-3.59c1.817 2.197 3.615 4.26 5.394 6.187l-4.195 4.26c-4.68 4.285-10.856 6.76-17.858 7.096zm8.376 10.817l-3.17.43 12.888-14.927c.567-.445 1.128-.9 1.663-1.39l.027-.023 4.17-4.233c2.088 2.178 4.14 4.17 6.15 6.004l-4.542 5.5c-4.29 4.688-10.23 7.696-17.183 8.64zm14.07 11.263l-2.925 1.385 8.27-19.635 4.384-5.308c2.244 1.955 4.433 3.713 6.547 5.28l-2.5 4.804-.015.03c-2.667 5.77-7.42 10.44-13.764 13.443zm13.372 9.422l-2.844 1.95 4.187-20.762c.572-.935 1.108-1.892 1.57-2.89l2.27-4.358c2.738 1.91 5.345 3.522 7.778 4.863l-1.492 5.744c-.782 2.783-2.05 5.398-3.72 7.81l-.06-.013-.036.154c-1.99 2.832-4.547 5.37-7.65 7.5zm9.004 8.862l-2.596 1.878 3.836-17.13c1.73-2.567 3.062-5.346 3.896-8.308l.003-.013 1.338-5.16c2.088 1.052 4.025 1.908 5.795 2.602l-1.22 10.466c-1.575 6.13-5.386 11.565-11.052 15.665zm17.232-44.7c2.09.935 4.067 1.693 5.88 2.31l-.38 16.33c-1.4-.2-3.967-.7-7.45-1.914l1.95-16.725zm5.433 21.44l-.16 6.966c-.493 6.327-3.316 12.352-8.203 17.38l-2.408 2.473v-13.44c.783-1.66 1.416-3.385 1.87-5.168l.022-.09 1.17-10.014c3.624 1.22 6.294 1.706 7.71 1.89zm-11.275-24.383c1.084.61 2.15 1.17 3.196 1.69l-1.977 16.97c-1.658-.67-3.47-1.495-5.414-2.495l4.195-16.166zm-2.485-1.468l-4.228 16.28c-2.257-1.27-4.672-2.79-7.206-4.575l7.48-14.364c1.325.956 2.646 1.85 3.953 2.66zm-6.197-4.358l-7.506 14.414c-1.963-1.472-3.993-3.108-6.08-4.927l10.19-12.335c1.125 1.015 2.26 1.95 3.396 2.847zm-5.412-4.76l-10.243 12.397c-1.948-1.782-3.94-3.726-5.968-5.844l11.503-11.68c1.527 1.853 3.104 3.553 4.71 5.127zm-6.434-7.328l-11.677 11.854c-1.704-1.852-3.43-3.825-5.17-5.933l13.522-10.73c1.07 1.69 2.178 3.298 3.325 4.81zm-4.78-7.194l-13.79 10.942c-1.508-1.978-2.873-4.123-4.103-6.417 6.868-3.38 13.21-7.014 15.762-8.504.685 1.372 1.392 2.706 2.13 3.98zm-3.348-6.483c-.372.22-.81.474-1.37.796-3.012 1.736-8.57 4.845-14.434 7.73-.965-2.03-1.844-4.148-2.627-6.356 7.074-2.256 13.92-5.16 16.677-6.367.56 1.44 1.14 2.848 1.754 4.197zm-2.703-6.81c-.35.154-.753.33-1.26.547-3.192 1.374-9.246 3.853-15.35 5.8-.87-2.752-1.62-5.61-2.254-8.553 8.487-1.464 14.6-2.75 17.14-3.307.02.075.033.16.055.237.51 1.83 1.077 3.572 1.67 5.275zm-2.152-48.762l-19.253-3.467c.307-4.71.72-9.2 1.18-13.407 9.232 1.913 16.996 3.487 20.062 4.107-.726 4.077-1.41 8.378-1.99 12.768zm2.49-15.496c-1.246-.253-3.218-.652-5.764-1.17-3.83-.78-8.91-1.822-14.488-2.978.32-2.707.65-5.293.985-7.666.167-1.182.332-2.297.497-3.384 4.227 2.035 8.08 3.898 11.274 5.448 4.13 2.003 7.146 3.473 8.586 4.177-.365 1.79-.73 3.648-1.09 5.574zm1.674-8.375c-3.142-1.53-10.674-5.2-19.997-9.687.42-2.626.817-4.92 1.148-6.716.225-1.225.408-2.168.562-2.945 11.824 6.98 19.95 11.765 19.974 11.777-.528 2.26-1.102 4.804-1.688 7.57zm2.36-10.394c-.674-.397-1.78-1.05-3.365-1.982-9.176-5.407-32.317-19.054-54.765-32.385-22.44-13.326-44.223-26.36-50.576-30.47-7-4.516-12.36-12.28-15.9-18.933-1.748-3.273-3.057-6.26-3.936-8.453l28.08 16.902c3.91 7.502 9.553 13.997 16.523 18.88l.026.02 84.627 53.543c-.218.866-.456 1.825-.713 2.876zm1.442-5.7L51.892 60.092C43.92 54.506 37.75 46.718 34.135 37.678l-1.743-4.357 97.255 69.11 6.494 9.03c-.104.388-.253.94-.44 1.657zm40.123 115.75c-2.44-.403-8.34-1.726-14.82-5.766-8.013-5.01-16.853-14.08-21.032-30.888-1.252-5.054-1.786-9.99-1.79-14.742 0-13.896 4.59-26.237 9.21-35.1 2.304-4.428 4.61-7.984 6.337-10.428.863-1.22 1.58-2.162 2.078-2.796.25-.316.443-.556.575-.714l.19-.23 1.05-1.217-19.46-12.312c.146-.568.282-1.085.393-1.504.042-.16.076-.286.113-.42 8.89 1.31 14.358 4.516 17.696 8.964 3.49 4.655 4.767 10.888 4.765 18.103.003 7.917-1.535 16.93-3.095 26.008-1.555 9.08-3.132 18.226-3.135 26.528.003 7.237 1.2 13.893 4.834 19.223 3.41 5.01 8.988 8.65 17.2 10.426v.37h.173l-1.28 6.495zm4.657-9.267l4-20.294c4.078 2.525 15.008 8.163 31.458 8.166 10.74-.005 19.618-4.77 25.79-9.475 4.155-3.17 7.07-6.292 8.572-8.04 1.5 1.748 4.417 4.87 8.574 8.04 6.17 4.704 15.045 9.47 25.787 9.475 16.453-.003 27.384-5.642 31.46-8.166l4 20.293H180.48zm162.5-92.615l1.05 1.218.19.23c1.98 2.374 18.227 22.987 18.197 49.036 0 4.75-.537 9.687-1.79 14.74-4.312 17.35-13.59 26.458-21.808 31.36-4.11 2.445-7.958 3.817-10.76 4.575-1.38.372-2.504.596-3.287.725l-1.28-6.497h.175V222c8.21-1.774 13.787-5.415 17.195-10.424 3.634-5.33 4.832-11.985 4.835-19.223-.003-8.303-1.58-17.447-3.136-26.528-1.558-9.077-3.097-18.09-3.095-26.008-.003-7.215 1.273-13.447 4.766-18.103 3.34-4.448 8.805-7.652 17.695-8.966.036.137.068.262.112.42.11.42.25.937.396 1.504l-19.458 12.314zm99.7 238.774l-9.194 7.77.222-2.378 1.223-.453-3.645-3.61 11.396-1.33zm9.48-21.054l-7.92 9.062-.14-2.46.996-.662-4.003-2.91 11.068-3.03zm16.904-29.415l-6.89 9.873-.41-2.45.886-.77-4.26-2.44 10.674-4.212zm9.894-34.234l-4.73 11.072-.88-2.253.833-.948-4.81-1.567 9.59-6.306zm-31.217 11.11l-2.48 11.78-1.753-2.752-.44.28.752-1.328-4.02-.157 7.942-7.824zm-2.71-25.882l7.5-8.68-1.525 11.937-1.458-1.923.542-1.14-5.058-.193zm-28.68 26.768l6.205-9.646.168 12.036-1.715-1.7.376-1.207-5.034.517zm-72.99 71.078c-5.54.018-11.926-.646-15.833-2.78-4.455-2.395-12.96-7.82-20.297-12.615-3.675-2.4-7.065-4.65-9.536-6.298-1.6-1.068-2.75-1.84-3.41-2.282v-92.062h9.236v59.59l-.033 25.005.513.417c.016.014 5.153 4.19 11.89 8.983 3.014 2.14 6.336 4.393 9.672 6.468l-.017.027 24.996 15.243c-1.96.158-4.464.305-7.18.305zm33.57 28.058c.095.1.18.21.28.31l-5.28 3.51-.09-1.937 5.09-1.88zM342.097 403.2l23.778-12.343 3.247 3.188-.06.002.135 2.862-3.957-2.756-17.83 13.61-5.313-4.564zm-1.182 13.016l24.4-18.63 4.524 3.146 1.685-1.122.574-.027-.017-.344 4.01-2.67-5.026 5.732-5.458-1.756-18.135 19.937-6.56-4.268zm40.092-21.038c1.366.658 2.818 1.11 4.304 1.303l-1.687 3.555-4.482-.15-4.84 8.03-1.223-3.693 7.93-9.042zm-27.53 36.31l-2.02-3.433-5.577-1.694 20.58-22.624 3.953 1.273 1.366 4.13-18.305 22.35zm11.37-2.516l15.827-26.26 3.85.13 2.38 4.196-13.61 25.485-2.646-2.975-5.802-.576zm9.692 10.933l-2.546-2.767-5.22.32 2.96-4.76 4.132 4.643 1.182-2.212 1.044.908-1.553 3.87zm6.256-3.452l-4.406-3.837 10.26-19.213-5.854 23.05zm13.144-26.05l-1.528 28.852-3.658-1.57-5.937 2.088 8.016-31.572 3.108 2.204zm-4.64-4.766l-2.18-3.842 1.17-3.727.977-1.72c.333-.065.666-.12.994-.215l-.96 9.504zm1.324.708l-.116.162-.838-.214-.026-.05.98.102zm4.48-18.728c-.718 2.257-1.892 3.764-3.298 4.753-1.406.983-3.087 1.45-4.85 1.452-3.765.014-7.78-2.206-9.537-5.68v-.003c-.4-.78-.567-1.546-.57-2.324-.008-1.634.803-3.396 2.106-4.907 1.135-1.326 2.625-2.404 4.057-3.05-.024.366-.06.75-.06 1.084-.006 2.423.625 4 1.438 4.956.81.958 1.697 1.193 1.906 1.23l.406-2.107.2-.6c0-.002-.225-.056-.515-.473-.284-.42-.658-1.28-.66-3.006 0-.49.04-1.064.112-1.696.057 0 .105-.01.165-.01 2.037-.01 4.57.608 6.45 1.858 1.885 1.273 3.123 2.983 3.143 5.57.002.87-.148 1.846-.494 2.95zm10.248 2.46c-.69 1.098-1.614 1.94-2.368 2.37h-.003c-.94.543-1.72.72-2.406.722-1.284.004-2.414-.685-3.263-1.48-.27-.25-.486-.495-.676-.726.43-.77.823-1.588 1.113-2.515.423-1.34.626-2.6.626-3.783.014-3.008-1.354-5.377-3.235-7.005.237-.3.474-.602.726-.846.024-.02.043-.03.067-.052.26.388.497.754.71 1.093.416.652.75 1.2.974 1.582s.342.587.342.587l2.422-1.354c-.01-.02-.623-1.104-1.617-2.647.32.1.676.243 1.09.474.88.494 1.97 1.337 3.263 2.65 2.6 2.65 3.4 5.01 3.406 6.992 0 1.497-.475 2.836-1.17 3.935zm-2.288-23.328l.366.017c2.533.27 4.815 1.247 6.41 2.667 1.6 1.433 2.532 3.243 2.538 5.433l-.014.47c-.073 1.094-.43 1.87-.95 2.522-.773.974-2.007 1.636-3.077 2.01-.336.12-.637.203-.907.27-.615-.98-1.377-1.96-2.34-2.935-1.422-1.444-2.692-2.452-3.882-3.125-.99-.554-1.93-.82-2.835-.912.2-.88.505-1.994.966-3.046.21-.482.452-.945.718-1.36.97.464 1.824 1.05 2.525 1.66.75.654 1.33 1.315 1.713 1.806l.43.583.096.15.02.036 2.38-1.43c-.052-.08-.99-1.638-2.812-3.234-.573-.497-1.27-.985-2.025-1.443.22-.055.426-.137.68-.14zm-7.367-42.866l3.994-10.752 2.736 11.717-2.026-1.288.13-1.276-4.833 1.598zm4.393 2.766l6.41 4.074-8.29 26.442c-.315-.48-.682-.948-1.07-1.404l2.95-29.11zm-21.392 39.825l.696-1.197 1.325.415.053-.24c.052-.3.157-1.077.426-2.188.392-1.645 1.145-3.907 2.41-5.64 1.293-1.74 2.9-2.923 5.42-2.94l.22.004c1.846.055 3.244.653 4.417 1.55 1.754 1.337 2.943 3.435 3.645 5.22.355.892.59 1.7.737 2.273.072.287.12.515.153.67l.033.17.01.044 2.735-.444c-.005-.02-.035-.192-.09-.453l.936.392c-1.03.233-1.906.762-2.625 1.41-.924-.253-1.9-.432-2.978-.432h-.038l.037 1.617v1.157c.388 0 .737.076 1.1.122-.61 1.127-1.043 2.3-1.347 3.34-.054.196-.092.364-.138.552-.122-.16-.238-.317-.363-.475l-2.174 1.724c.358.452.702.905 1.033 1.354-.145.124-.297.243-.42.368-.43.428-.8.878-1.12 1.292-2.084-1.073-4.37-1.6-6.447-1.65.258-1.108.577-2.317 1.05-3.73l-2.635-.88c-.62 1.87-1.043 3.482-1.33 4.913-.264.065-.542.108-.79.198-1.654.62-3.28 1.663-4.687 2.98l-19.307-12.352.127-.02-14.613-8.912c2.258.41 4.37.577 6.27.577 4.874-.003 8.372-1.024 9.757-1.504l18.51 10.716zm-14.24-255.015l6.493-9.03 97.255-69.11-1.74 4.358c-3.617 9.043-9.793 16.832-17.768 22.42l-83.8 53.02c-.188-.718-.336-1.27-.44-1.658zm2.556 10.18c.014-.007 8.143-4.792 19.977-11.778.382 1.924 1.005 5.24 1.713 9.662-9.325 4.487-16.86 8.156-20 9.688-.588-2.767-1.162-5.313-1.69-7.57zm2.273 10.374c1.438-.703 4.455-2.173 8.585-4.177 3.194-1.55 7.045-3.41 11.275-5.448.496 3.27 1.005 6.99 1.482 11.046-5.572 1.154-10.662 2.198-14.49 2.98l-5.765 1.17c-.36-1.927-.725-3.783-1.088-5.573zm1.588 8.3c3.067-.62 10.83-2.193 20.066-4.106.46 4.2.86 8.703 1.17 13.41l-19.244 3.463c-.583-4.386-1.265-8.687-1.992-12.764zm3.455 43.944c.174-2.438.29-4.927.29-7.5 0-1.547-.035-3.115-.09-4.697 2.867-.104 9.83-.392 18.102-.894-.092 4.283-.32 8.578-.713 12.818-8.03.08-14.57.208-17.59.275zm17.305 2.503c-.382 3.45-.884 6.847-1.512 10.158-4.31-.743-8.015-1.44-10.94-2.02-2.368-.47-4.23-.86-5.498-1.135l-.63-.137c.45-2.104.822-4.284 1.063-6.59 1.677-.036 4.634-.096 8.446-.156 2.657-.044 5.744-.086 9.074-.12zm-6.11-17.973c-3.68.19-6.813.33-9.027.422-.86.034-1.53.06-2.09.08-.232-4.454-.652-8.98-1.192-13.45l10.62-1.912 8.484-.72c.228 4.29.366 8.7.366 13.17 0 .667-.014 1.336-.02 2.006-2.517.152-4.934.288-7.142.403zm-13.14 27.784c.02-.075.032-.16.054-.24 2.538.56 8.65 1.847 17.14 3.31-.635 2.938-1.383 5.79-2.253 8.54-3.284-1.046-6.555-2.23-9.368-3.332-2.42-.946-4.507-1.82-5.983-2.455-.507-.217-.91-.393-1.263-.547.592-1.703 1.16-3.446 1.67-5.275zm-2.62 7.89c2.753 1.205 9.603 4.11 16.678 6.366-.784 2.21-1.665 4.328-2.63 6.36-2.967-1.46-5.86-2.978-8.376-4.346-2.458-1.337-4.566-2.532-6.057-3.39-.56-.322-.998-.58-1.37-.796.616-1.348 1.196-2.755 1.754-4.196zm-2.97 6.7c2.55 1.49 8.893 5.123 15.762 8.504-1.23 2.294-2.596 4.44-4.105 6.417l-13.787-10.94c.736-1.275 1.443-2.61 2.13-3.98zm-3.59 6.364l13.525 10.73c-1.742 2.107-3.468 4.083-5.17 5.934l-11.68-11.855c1.147-1.512 2.256-3.12 3.326-4.81zm-5.05 7.012l11.51 11.684c-2.03 2.118-4.022 4.053-5.974 5.837l-10.24-12.397c1.605-1.575 3.18-3.275 4.707-5.125zm-6.725 7.037l10.19 12.335c-2.083 1.815-4.115 3.464-6.077 4.93l-7.51-14.418c1.138-.897 2.273-1.83 3.398-2.848zm-5.64 4.545l7.484 14.37c-2.54 1.785-4.947 3.29-7.21 4.562l-4.225-16.274c1.308-.81 2.628-1.703 3.95-2.66zm-6.438 4.128l4.2 16.168c-.62.317-1.228.62-1.818.902-1.27.61-2.463 1.125-3.596 1.583l-1.978-16.965c1.046-.52 2.11-1.08 3.192-1.69zm-11.72 5.253c1.812-.617 3.788-1.378 5.878-2.31l1.95 16.728c-1.85.647-3.44 1.09-4.74 1.393-1.16.27-2.047.424-2.708.517l-.38-16.328zm11.22 45.95l-2.41-2.475c-4.89-5.032-7.718-11.062-8.202-17.395l-.16-6.954c1.417-.185 4.086-.672 7.71-1.892l1.167 10.013.024.09c.453 1.783 1.087 3.51 1.87 5.167v13.444zm11.89-3.56c-5.662-4.098-9.472-9.534-11.052-15.658l-1.22-10.476c1.768-.693 3.705-1.547 5.794-2.6l1.34 5.16.002.014c.834 2.96 2.165 5.74 3.894 8.307l3.837 17.13-2.596-1.877zm11.85-6.913l-2.846-1.95c-3.103-2.13-5.658-4.668-7.647-7.5l-.036-.153-.06.013c-1.67-2.406-2.934-5.016-3.72-7.793l-1.496-5.762c2.434-1.34 5.038-2.952 7.777-4.862l2.27 4.36c.46.996 1 1.95 1.567 2.886l4.19 20.762zm13.45-9.987l-2.92-1.386c-6.347-3.005-11.098-7.67-13.767-13.443l-.014-.027-2.5-4.804c2.112-1.568 4.303-3.326 6.55-5.28l4.386 5.31 8.266 19.63zm14.316-12.22l-3.168-.43c-6.95-.945-12.888-3.95-17.177-8.634l-4.55-5.506c2.01-1.835 4.063-3.826 6.15-6.004l4.17 4.234.027.023c.53.488 1.092.94 1.658 1.386l12.892 14.93zm8.496-11.09l-3.292-.156c-6.997-.334-13.17-2.81-17.85-7.09l-4.2-4.266c1.777-1.93 3.577-3.99 5.393-6.188l4.525 3.59.01.01c1.204.92 2.483 1.728 3.813 2.442l11.6 11.658zm7.99-10.978l-3.272.143c-.482.02-.96.03-1.436.03-6.447 0-12.306-1.907-17.01-5.502v.002l-4.504-3.574c1.637-2.15 3.108-4.47 4.425-6.936 2.01.948 4.02 1.85 5.965 2.645l15.833 13.193zm7.833-16.66c-3.228 1.072-8.49 2.483-13.87 2.477-2.942 0-5.895-.42-8.55-1.5-1.923-.78-3.934-1.696-5.946-2.646 1.03-2.16 1.96-4.404 2.785-6.737 1.55.45 3.087.858 4.568 1.192 1.618.36 3.412.51 5.314.51l15.7 6.7zm7.126-13.572c-5.754 1.667-15.49 4.11-22.807 4.097-1.762 0-3.374-.142-4.724-.444-1.38-.31-2.826-.694-4.29-1.117.91-2.875 1.686-5.85 2.342-8.9 1.9.316 3.896.636 5.985.958l23.495 5.406zm9.138-19.45c-2.073 1.46-4.994 3.38-8.438 5.248-6.03 3.282-13.587 6.312-20.462 6.3-1.107 0-2.197-.077-3.26-.24-2.062-.317-4.037-.634-5.915-.947.658-3.477 1.17-7.04 1.558-10.644 3.483-.03 7.177-.05 10.95-.05v.003l25.568.332zm5.675-17.514c-2.133 1.797-5.41 4.364-9.35 6.83-6.29 3.948-14.274 7.59-21.87 7.575-3.68 0-7.28.02-10.688.048.388-4.302.606-8.646.7-12.967 5.187-.333 10.73-.75 15.99-1.253.565-.056 1.135-.18 1.7-.27v.04h23.518zm7.668-20.715c-2.32 2.09-5.89 5.12-10.163 8.116-6.734 4.738-15.22 9.337-22.988 10.07-5.15.494-10.583.9-15.69 1.232.005-.61.02-1.223.02-1.83 0-4.553-.14-9.048-.37-13.407l49.19-4.18zm10.548-25.285c-2.13 2.337-5.466 5.753-9.598 9.156-6.472 5.345-14.877 10.58-23.354 11.6l-.04.004-26.974 4.857c-.314-4.732-.73-9.26-1.192-13.48 8.194-1.702 17.224-3.606 25.003-5.315l36.155-6.82zm7.747-24.84c-2.368 3.07-6.275 7.837-11.028 12.508-6.14 6.05-13.707 11.856-20.815 13.557-8.6 2.083-24.073 5.376-37.376 8.143-.514-4.347-1.066-8.308-1.595-11.74 2.248-1.08 4.557-2.188 6.95-3.333l63.863-19.135zm9.414-29.17c-3.626 6.048-12.254 18.044-26.08 23.6-11.37 4.596-35.903 16.196-54.6 25.176-.79-4.845-1.47-8.312-1.793-9.9l1.653-.976.044.095 80.777-37.994zm18.273-33.187c-3.53 6.353-8.655 13.44-15.216 17.675-7.265 4.7-34.663 21.043-60.195 36.177-12.77 7.567-25.082 14.842-34.203 20.223-4.56 2.69-8.323 4.91-10.943 6.453-1.585.934-2.69 1.585-3.368 1.982-.256-1.052-.494-2.01-.714-2.876l84.63-53.546.027-.018c6.97-4.884 12.61-11.378 16.52-18.88l28.077-16.902c-.99 2.472-2.52 5.945-4.616 9.71zM284.728 374.415c-2.046-4.312-2.466-10.842-2.45-19.868V245.315h-14.784v59.596l.03 56.008-9.266 6.352V245.315H242.34v121.952l-9.263-6.352.027-56.006v-59.597H218.32v109.23c.015 9.027-.404 15.558-2.45 19.87l-42.958 39.358-.157 18.26 16.27-.487 3.025 13.532 1.754 1.024 13.548-4.09 8.09 23.896 1.982.77 18.59-10.204 13.135 23.248 1.147-.303 1.15.304 13.137-23.246 18.59 10.205 1.98-.77 8.088-23.898 13.55 4.09 1.756-1.024 3.025-13.532 16.268.487-.156-18.258-42.958-39.357zm-63.633-19.868V248.09h9.235v56.82l-.027 57.47 11.986 8.217.316-.464h2.51v-122.04h10.367v122.04h2.512l.317.464 11.985-8.216-.03-57.47v-56.82h9.235V354.55c.006 3.39.052 6.46.23 9.25-1.073 1.247-4.777 5.372-9.945 9.284-5.452 4.142-12.48 7.93-19.486 7.94-7.476-.004-14.98-4.326-20.56-8.77-2.8-2.217-5.12-4.447-6.728-6.113-.806-.833-1.435-1.527-1.86-2.01l-.29-.333c.18-2.79.226-5.858.232-9.248zm-45.418 60.458l41.94-38.425c.59.696 1.158 1.4 1.785 2.08l-43.83 48.314.105-11.97zm1.7 14.112l43.983-48.486c1.075 1.075 2.175 2.113 3.322 3.116l-35.245 45.01-12.06.362zm14.248 1.348l35.29-44.837c.832.664 1.68 1.276 2.535 1.892l-35.405 53.763-2.42-10.818zm15.677 8.665l-10.63 3.212 35.045-53.218c.106.067.205.15.31.22.81.52 1.63 1.008 2.453 1.477l-27.178 48.31zm9.44 21.96l-6.994-20.65 27.18-48.318c.754.373 1.508.72 2.264 1.043l-22.45 67.926zm18.55-7.38l-16.11 8.84 22.606-68.4c1.093.372 2.184.68 3.27.922l-9.767 58.637zm13.56 19.843L238 454.346l9.792-58.8c.355.04.708.062 1.06.087v77.92zm1.447-80.62c-5.163-.007-11.108-2.278-16.775-5.926-5.366-3.44-10.44-8.094-14.48-13.018.698-1.93 1.155-4.088 1.46-6.468 1.68 1.778 4.253 4.32 7.51 6.902 5.817 4.596 13.703 9.297 22.224 9.362v.008l.06-.003.06.004v-.008c8.52-.065 16.405-4.767 22.222-9.362 3.255-2.583 5.83-5.122 7.512-6.902.304 2.382.76 4.536 1.458 6.466-4.04 4.923-9.116 9.575-14.48 13.017-5.67 3.647-11.614 5.92-16.774 5.927zm1.445 80.62v-77.92c.353-.024.708-.046 1.062-.087l9.793 58.8-10.854 19.207zm13.563-19.844l-9.767-58.64c1.085-.243 2.177-.55 3.267-.92l22.606 68.397-16.107-8.84zm18.547 7.383l-22.453-67.93c.76-.322 1.512-.67 2.266-1.043l27.18 48.32-6.993 20.654zm9.44-21.964l-27.178-48.31c.823-.47 1.642-.958 2.45-1.48.107-.066.205-.15.31-.22l35.044 53.217-10.627-3.208zm13.258 2.15l-35.403-53.76c.855-.616 1.704-1.23 2.533-1.893l35.29 44.837-2.418 10.818zm4.607-12.526l-35.247-45.01c1.15-1.003 2.25-2.04 3.322-3.114l43.988 48.487-12.063-.362zm-29.966-50.094c.626-.68 1.195-1.384 1.786-2.08l41.94 38.425.1 11.967-43.826-48.31zm111.225-14.954c.273-.215.545-.32.75-.374l.24-.047.056-.005-.003-.035v-1.055l.046-1.686h-.047c-.266.003-1.487.038-2.75 1.014-1.274.976-2.336 2.873-2.39 5.88l2.774.065c.08-2.457.8-3.33 1.323-3.757z"/></svg>